<?xml version="1.0" encoding="UTF-8" standalone="no"?>
<svg
   xmlns:dc="http://purl.org/dc/elements/1.1/"
   xmlns:cc="http://creativecommons.org/ns#"
   xmlns:rdf="http://www.w3.org/1999/02/22-rdf-syntax-ns#"
   xmlns:svg="http://www.w3.org/2000/svg"
   xmlns="http://www.w3.org/2000/svg"
   xmlns:sodipodi="http://sodipodi.sourceforge.net/DTD/sodipodi-0.dtd"
   xmlns:inkscape="http://www.inkscape.org/namespaces/inkscape"
   version="1.1"
   width="438.09375"
   height="438.09375"
   id="svg3427"
   inkscape:version="0.91 r13725"
   sodipodi:docname="American_Astronomical_Society_Logo.svg">
  <metadata
     id="metadata8">
    <rdf:RDF>
      <cc:Work
         rdf:about="">
        <dc:format>image/svg+xml</dc:format>
        <dc:type
           rdf:resource="http://purl.org/dc/dcmitype/StillImage" />
      </cc:Work>
    </rdf:RDF>
  </metadata>
  <sodipodi:namedview
     pagecolor="#ffffff"
     bordercolor="#666666"
     borderopacity="1"
     objecttolerance="10"
     gridtolerance="10"
     guidetolerance="10"
     inkscape:pageopacity="0"
     inkscape:pageshadow="2"
     inkscape:window-width="1427"
     inkscape:window-height="781"
     id="namedview6"
     showgrid="false"
     inkscape:zoom="0.53869748"
     inkscape:cx="-46.408236"
     inkscape:cy="219.04688"
     inkscape:window-x="0"
     inkscape:window-y="0"
     inkscape:window-maximized="0"
     inkscape:current-layer="layer1" />
  <defs
     id="defs3429" />
  <g
     transform="translate(-163.81027,-370.45816)"
     id="layer1">
    <path
       d="m 382.9363,371.45816 -7.12314,196.91492 14.08797,0 -6.96483,-196.91492 z m -119.19369,76.45492 -54.13578,120.46001 29.75885,0 11.397,-27.38448 55.7187,0 12.03018,27.38447 30.5503,0 -55.5604,-120.46 -29.75885,0 z m 194.38226,0 -54.13577,120.46001 29.75885,0 11.55528,-27.38448 55.56042,0 12.03016,27.38447 30.55031,0 -55.5604,-120.46 -29.75885,0 z m -179.81942,28.01763 19.15329,44.79656 -37.99001,0 18.83671,-44.79656 z m 194.38226,0 19.1533,44.79656 -37.99002,0 18.83672,-44.79656 z m -103.83939,99.40721 0,28.17594 28.01765,0 0,-28.17594 -28.01765,0 z m -7.12313,7.12313 -196.91492,6.96484 196.91492,6.96483 0,-13.92967 z m 42.26391,0 0,13.92967 196.91492,-6.96483 -196.91492,-6.96484 z m 62.05036,24.06035 c -10.68857,1.2e-4 -19.82668,1.47946 -27.38448,4.27387 -7.55786,2.79468 -13.39604,6.84599 -17.41208,12.18847 -4.01612,5.34266 -6.01509,11.11677 -6.01509,17.2538 0,9.53448 4.28344,17.5885 12.82162,24.21863 6.07158,4.71248 16.60583,8.639 31.65835,11.87189 11.70037,2.52064 19.18858,4.23734 22.47743,5.22363 4.80662,1.47952 8.20161,3.22363 10.13067,5.22362 1.92889,2.00011 2.84913,4.43204 2.84925,7.28143 -1.2e-4,4.43843 -2.22133,8.39844 -6.80653,11.71358 -4.5854,3.31514 -11.37562,4.90704 -20.41964,4.90704 -8.53826,0 -15.39166,-1.81409 -20.41964,-5.54021 -5.02804,-3.72605 -8.32804,-9.62503 -9.97237,-17.57038 l -27.38448,2.37438 c 1.8341,13.47974 7.5136,23.6674 16.93721,30.7086 9.42355,7.04119 22.94034,10.60554 40.52269,10.60554 12.07981,0 22.13818,-1.5006 30.23373,-4.43217 8.09528,-2.93156 14.40942,-7.4273 18.83671,-13.4548 4.42705,-6.0275 6.64814,-12.40735 6.64826,-19.31158 -1.2e-4,-7.61657 -1.84042,-14.13337 -5.54021,-19.3116 -3.69998,-5.17817 -8.8085,-9.20207 -15.3543,-12.18847 -6.54606,-2.98626 -16.73106,-5.91137 -30.39201,-8.70605 -13.66109,-2.79447 -22.25988,-5.4974 -25.80157,-8.07287 -2.78282,-2.02734 -4.11563,-4.43198 -4.11557,-7.28141 -6e-5,-3.12323 1.45957,-5.57657 4.43216,-7.43972 4.61693,-2.90408 10.99456,-4.43205 19.1533,-4.43217 7.9056,1.2e-4 13.77575,1.40329 17.72868,4.11559 3.9528,2.71248 6.55455,7.263 7.7563,13.4548 l 28.17592,-1.10805 c -0.44257,-11.06858 -5.107,-19.96262 -13.92967,-26.59302 -8.82287,-6.63013 -21.95893,-9.97225 -39.41464,-9.97237 z m -90.2263,3.95729 7.12314,197.07322 6.96483,-197.07322 -14.08797,0 z"
       id="path3390"
       style="font-size:30.68549919px;font-variant:normal;font-weight:bold;font-stretch:normal;writing-mode:lr-tb;fill:#ffffff;fill-opacity:1;fill-rule:nonzero;stroke:none;font-family:Arial;-inkscape-font-specification:Arial-Black" />
  </g>
</svg>
